<?xml version="1.0" standalone="no"?>
<!DOCTYPE svg PUBLIC "-//W3C//DTD SVG 20010904//EN"
 "http://www.w3.org/TR/2001/REC-SVG-20010904/DTD/svg10.dtd">
<svg version="1.0" xmlns="http://www.w3.org/2000/svg"
 width="512.000000pt" height="512.000000pt" viewBox="0 0 512.000000 512.000000"
 preserveAspectRatio="xMidYMid meet">
<metadata>
Created by potrace 1.11, written by Peter Selinger 2001-2013
</metadata>
<g transform="translate(0.000000,512.000000) scale(0.100000,-0.100000)"
fill="#000000" stroke="none">
<path d="M207 4670 c-96 -37 -167 -116 -193 -214 -20 -76 -20 -3716 0 -3792
26 -99 98 -178 196 -215 49 -19 104 -19 2350 -19 2246 0 2301 0 2350 19 98 37
170 116 196 215 20 76 20 3716 0 3792 -26 99 -98 178 -196 215 -49 19 -103 19
-2353 19 -2228 -1 -2304 -2 -2350 -20z m4626 -199 c14 -6 35 -20 46 -32 l21
-23 0 -1857 0 -1856 -25 -25 c-14 -14 -39 -28 -56 -32 -41 -8 -4477 -8 -4518
0 -17 4 -42 18 -56 32 l-25 25 0 1856 c1 1516 3 1859 14 1873 38 51 -101 48
2323 48 1379 0 2261 -4 2276 -9z"/>
<path d="M1110 4049 c-195 -20 -370 -161 -442 -354 -32 -86 -32 -264 0 -350
60 -162 197 -290 362 -339 80 -24 218 -22 301 4 188 57 340 237 371 434 30
193 -56 388 -224 512 -103 76 -227 107 -368 93z m207 -250 c221 -107 232 -428
19 -549 -73 -42 -144 -55 -220 -40 -74 14 -105 30 -158 78 -131 118 -131 346
0 464 50 45 74 58 137 75 71 18 149 8 222 -28z"/>
<path d="M2928 3190 c-68 -20 -96 -52 -348 -387 l-257 -342 -134 135 c-148
148 -188 174 -269 174 -108 0 -88 20 -687 -698 -301 -361 -558 -677 -570 -701
-28 -54 -29 -121 -4 -177 23 -50 93 -111 140 -121 20 -5 817 -8 1771 -8 1898
0 1770 -4 1839 59 63 58 87 148 59 227 -15 44 -1317 1780 -1354 1806 -57 40
-125 52 -186 33z m701 -1065 l630 -840 -850 -3 c-467 -1 -1231 -1 -1698 0
l-849 3 505 605 c278 333 515 618 528 635 l24 30 184 -183 c180 -178 185 -182
226 -182 23 0 50 4 60 10 10 5 148 182 307 394 159 212 292 382 296 378 4 -4
290 -385 637 -847z"/>
</g>
</svg>
